<svg width="20" height="20" viewBox="0 0 20 20" fill="none" xmlns="http://www.w3.org/2000/svg">
<path d="M10.0015 12.9808C10.9458 12.9808 11.7478 12.6503 12.4075 11.9894C13.0672 11.3284 13.3971 10.5258 13.3971 9.58146C13.3971 8.63715 13.0666 7.83514 12.4056 7.17542C11.7447 6.51569 10.942 6.18583 9.99772 6.18583C9.05342 6.18583 8.2514 6.51632 7.59168 7.17729C6.93196 7.83826 6.6021 8.6409 6.6021 9.58521C6.6021 10.5295 6.93258 11.3315 7.59356 11.9912C8.25453 12.651 9.05717 12.9808 10.0015 12.9808ZM9.9996 11.8333C9.3746 11.8333 8.84335 11.6146 8.40585 11.1771C7.96835 10.7396 7.7496 10.2083 7.7496 9.58333C7.7496 8.95833 7.96835 8.42708 8.40585 7.98958C8.84335 7.55208 9.3746 7.33333 9.9996 7.33333C10.6246 7.33333 11.1558 7.55208 11.5933 7.98958C12.0308 8.42708 12.2496 8.95833 12.2496 9.58333C12.2496 10.2083 12.0308 10.7396 11.5933 11.1771C11.1558 11.6146 10.6246 11.8333 9.9996 11.8333ZM9.9996 15.4167C8.24529 15.4167 6.64085 14.9487 5.18626 14.0127C3.73168 13.0769 2.57064 11.8456 1.70314 10.319C1.63369 10.1992 1.58293 10.0786 1.55085 9.95708C1.5189 9.83556 1.50293 9.71083 1.50293 9.58292C1.50293 9.455 1.5189 9.33042 1.55085 9.20917C1.58293 9.08792 1.63369 8.96743 1.70314 8.84771C2.57064 7.32104 3.73168 6.08979 5.18626 5.15396C6.64085 4.21799 8.24529 3.75 9.9996 3.75C11.7539 3.75 13.3583 4.21799 14.8129 5.15396C16.2675 6.08979 17.4286 7.32104 18.2961 8.84771C18.3655 8.96743 18.4163 9.08806 18.4483 9.20958C18.4803 9.33111 18.4963 9.45583 18.4963 9.58375C18.4963 9.71167 18.4803 9.83625 18.4483 9.9575C18.4163 10.0788 18.3655 10.1992 18.2961 10.319C17.4286 11.8456 16.2675 13.0769 14.8129 14.0127C13.3583 14.9487 11.7539 15.4167 9.9996 15.4167ZM9.9996 14.1667C11.569 14.1667 13.01 13.7535 14.3225 12.9271C15.635 12.1007 16.6385 10.9861 17.3329 9.58333C16.6385 8.18056 15.635 7.06597 14.3225 6.23958C13.01 5.41319 11.569 5 9.9996 5C8.43015 5 6.98918 5.41319 5.67668 6.23958C4.36418 7.06597 3.36071 8.18056 2.66626 9.58333C3.36071 10.9861 4.36418 12.1007 5.67668 12.9271C6.98918 13.7535 8.43015 14.1667 9.9996 14.1667Z" fill="#737373"/>
</svg>
