<svg width="24" height="24" viewBox="0 0 24 24" fill="none" xmlns="http://www.w3.org/2000/svg">
<g clip-path="url(#clip0_63_365)">
<path d="M12.0272 19.8596C12.4307 19.8596 12.7714 19.7207 13.0493 19.4428C13.3272 19.1652 13.4661 18.8245 13.4661 18.4207C13.4661 18.0172 13.3272 17.6765 13.0493 17.3986C12.7714 17.1207 12.4307 16.9818 12.0272 16.9818C11.6236 16.9818 11.2829 17.1207 11.0051 17.3986C10.7272 17.6765 10.5882 18.0172 10.5882 18.4207C10.5882 18.8245 10.7272 19.1652 11.0051 19.4428C11.2829 19.7207 11.6236 19.8596 12.0272 19.8596ZM11.028 14.8045H13.0154C13.0335 14.0661 13.1389 13.5036 13.3316 13.1171C13.5244 12.7307 13.9131 12.2452 14.4978 11.6605C15.2488 10.9094 15.7859 10.2711 16.1089 9.74541C16.432 9.21953 16.5935 8.62177 16.5935 7.95212C16.5935 6.77753 16.1927 5.83047 15.3911 5.11094C14.5892 4.39141 13.5566 4.03165 12.2933 4.03165C11.1439 4.03165 10.1615 4.32447 9.34624 4.91012C8.53071 5.49553 7.95106 6.25788 7.60729 7.19718L9.42071 7.92494C9.62165 7.32588 9.95565 6.83671 10.4227 6.45741C10.8895 6.07835 11.4751 5.88882 12.1793 5.88882C12.9412 5.88882 13.5361 6.09553 13.9641 6.50894C14.3924 6.92259 14.6065 7.4253 14.6065 8.01706C14.6065 8.4533 14.4771 8.88141 14.2182 9.30141C13.9594 9.72141 13.5602 10.1748 13.0207 10.6616C12.2534 11.3529 11.7295 11.9946 11.4491 12.5866C11.1684 13.1784 11.028 13.9176 11.028 14.8045ZM2.55212 24C1.83894 24 1.23529 23.7529 0.741177 23.2588C0.247059 22.7647 0 22.1611 0 21.4479V2.55212C0 1.83894 0.247059 1.23529 0.741177 0.741177C1.23529 0.247059 1.83894 0 2.55212 0H21.4479C22.1611 0 22.7647 0.247059 23.2588 0.741177C23.7529 1.23529 24 1.83894 24 2.55212V21.4479C24 22.1611 23.7529 22.7647 23.2588 23.2588C22.7647 23.7529 22.1611 24 21.4479 24H2.55212ZM2.55212 21.8824H21.4479C21.5566 21.8824 21.6561 21.8371 21.7465 21.7465C21.8371 21.6561 21.8824 21.5566 21.8824 21.4479V2.55212C21.8824 2.44341 21.8371 2.34388 21.7465 2.25353C21.6561 2.16294 21.5566 2.11765 21.4479 2.11765H2.55212C2.44341 2.11765 2.34388 2.16294 2.25353 2.25353C2.16294 2.34388 2.11765 2.44341 2.11765 2.55212V21.4479C2.11765 21.5566 2.16294 21.6561 2.25353 21.7465C2.34388 21.8371 2.44341 21.8824 2.55212 21.8824Z" fill="#E5E5E5"/>
</g>
<defs>
<clipPath id="clip0_63_365">
<rect width="24" height="24" fill="white"/>
</clipPath>
</defs>
</svg>
