<svg width="20" height="20" viewBox="0 0 20 20" fill="none" xmlns="http://www.w3.org/2000/svg">
<path d="M10.0024 12.9808C10.9468 12.9808 11.7488 12.6503 12.4085 11.9894C13.0682 11.3284 13.3981 10.5258 13.3981 9.58146C13.3981 8.63715 13.0676 7.83514 12.4066 7.17542C11.7456 6.51569 10.943 6.18583 9.9987 6.18583C9.05439 6.18583 8.25238 6.51632 7.59266 7.17729C6.93293 7.83826 6.60307 8.6409 6.60307 9.58521C6.60307 10.5295 6.93356 11.3315 7.59453 11.9912C8.2555 12.651 9.05814 12.9808 10.0024 12.9808ZM10.0006 11.8333C9.37557 11.8333 8.84432 11.6146 8.40682 11.1771C7.96932 10.7396 7.75057 10.2083 7.75057 9.58333C7.75057 8.95833 7.96932 8.42708 8.40682 7.98958C8.84432 7.55208 9.37557 7.33333 10.0006 7.33333C10.6256 7.33333 11.1568 7.55208 11.5943 7.98958C12.0318 8.42708 12.2506 8.95833 12.2506 9.58333C12.2506 10.2083 12.0318 10.7396 11.5943 11.1771C11.1568 11.6146 10.6256 11.8333 10.0006 11.8333ZM10.0006 15.4167C8.24627 15.4167 6.64182 14.9487 5.18724 14.0127C3.73266 13.0769 2.57161 11.8456 1.70411 10.319C1.63467 10.1992 1.58391 10.0786 1.55182 9.95708C1.51988 9.83556 1.50391 9.71083 1.50391 9.58292C1.50391 9.455 1.51988 9.33042 1.55182 9.20917C1.58391 9.08792 1.63467 8.96743 1.70411 8.84771C2.57161 7.32104 3.73266 6.08979 5.18724 5.15396C6.64182 4.21799 8.24627 3.75 10.0006 3.75C11.7549 3.75 13.3593 4.21799 14.8139 5.15396C16.2685 6.08979 17.4295 7.32104 18.297 8.84771C18.3665 8.96743 18.4172 9.08806 18.4493 9.20958C18.4813 9.33111 18.4972 9.45583 18.4972 9.58375C18.4972 9.71167 18.4813 9.83625 18.4493 9.9575C18.4172 10.0788 18.3665 10.1992 18.297 10.319C17.4295 11.8456 16.2685 13.0769 14.8139 14.0127C13.3593 14.9487 11.7549 15.4167 10.0006 15.4167ZM10.0006 14.1667C11.57 14.1667 13.011 13.7535 14.3235 12.9271C15.636 12.1007 16.6395 10.9861 17.3339 9.58333C16.6395 8.18056 15.636 7.06597 14.3235 6.23958C13.011 5.41319 11.57 5 10.0006 5C8.43113 5 6.99016 5.41319 5.67766 6.23958C4.36516 7.06597 3.36168 8.18056 2.66724 9.58333C3.36168 10.9861 4.36516 12.1007 5.67766 12.9271C6.99016 13.7535 8.43113 14.1667 10.0006 14.1667Z" fill="#737373"/>
</svg>
