<svg width="20" height="20" viewBox="0 0 20 20" fill="none" xmlns="http://www.w3.org/2000/svg">
<path d="M12.3973 7.18607C12.7359 7.52482 12.9977 7.93642 13.1825 8.42086C13.3674 8.90544 13.4373 9.39183 13.3923 9.88003C13.3923 10.0403 13.3347 10.176 13.2194 10.2871C13.104 10.3982 12.9661 10.4538 12.8059 10.4538C12.6456 10.4538 12.5099 10.3982 12.3988 10.2871C12.2877 10.176 12.2321 10.0403 12.2321 9.88003C12.2856 9.51364 12.2554 9.16642 12.1417 8.83836C12.0279 8.51044 11.853 8.22843 11.6169 7.99232C11.3808 7.75621 11.0961 7.57697 10.7627 7.45461C10.4294 7.33225 10.0779 7.30044 9.70815 7.35919C9.54787 7.36461 9.40954 7.31093 9.29315 7.19815C9.17662 7.08551 9.11572 6.94905 9.11044 6.78878C9.10503 6.6285 9.15655 6.4901 9.26503 6.37357C9.3735 6.25718 9.50787 6.19634 9.66815 6.19107C10.1532 6.13551 10.6406 6.19878 11.1304 6.38086C11.6203 6.56308 12.0426 6.83148 12.3973 7.18607ZM9.99982 5.00023C9.70385 5.00023 9.4135 5.01468 9.12878 5.04357C8.84405 5.07232 8.56065 5.11982 8.27857 5.18607C8.10121 5.22246 7.94148 5.19711 7.7994 5.11003C7.65732 5.02294 7.55961 4.89766 7.50628 4.73419C7.4528 4.56544 7.47044 4.40496 7.55919 4.25273C7.6478 4.10051 7.77648 4.00621 7.94523 3.96982C8.28079 3.88968 8.61975 3.83308 8.96211 3.80003C9.30461 3.76683 9.65051 3.75023 9.99982 3.75023C11.7904 3.75023 13.4352 4.21551 14.9342 5.14607C16.4331 6.07662 17.5858 7.33572 18.3923 8.92336C18.4479 9.02905 18.4882 9.13558 18.5134 9.24294C18.5385 9.3503 18.5511 9.46385 18.5511 9.58357C18.5511 9.70329 18.5407 9.81683 18.5198 9.92419C18.499 10.0316 18.4608 10.1381 18.4052 10.2438C18.15 10.7779 17.8396 11.2761 17.4742 11.7382C17.1088 12.2002 16.7065 12.6247 16.2673 13.0115C16.1382 13.1269 15.9905 13.1747 15.8244 13.1548C15.6582 13.1351 15.5216 13.052 15.4148 12.9057C15.308 12.7593 15.2637 12.6022 15.2819 12.4346C15.3001 12.2668 15.3738 12.1252 15.5029 12.0098C15.8791 11.669 16.222 11.2964 16.5319 10.8921C16.8418 10.4877 17.1088 10.0515 17.3332 9.58357C16.6387 8.18079 15.6352 7.06621 14.3227 6.23982C13.0102 5.41343 11.5693 5.00023 9.99982 5.00023ZM9.99982 15.4169C8.24551 15.4169 6.6376 14.9482 5.17607 14.0107C3.71454 13.0732 2.55273 11.8384 1.69065 10.3063C1.62121 10.2006 1.57044 10.0857 1.53836 9.96169C1.50628 9.8378 1.49023 9.71176 1.49023 9.58357C1.49023 9.45537 1.50412 9.33142 1.5319 9.21169C1.55968 9.09211 1.60829 8.97517 1.67773 8.86086C1.9876 8.29461 2.33857 7.7553 2.73065 7.24294C3.12273 6.73072 3.57357 6.27162 4.08315 5.86565L2.20169 3.97128C2.08641 3.84739 2.02954 3.70023 2.03107 3.52982C2.03273 3.3594 2.09391 3.21385 2.21461 3.09315C2.3353 2.97246 2.48169 2.91211 2.65378 2.91211C2.82572 2.91211 2.97204 2.97246 3.09273 3.09315L16.9069 16.9073C17.0223 17.0227 17.0835 17.1656 17.0904 17.3359C17.0974 17.5063 17.0362 17.6561 16.9069 17.7854C16.7862 17.9061 16.6398 17.9665 16.4677 17.9665C16.2958 17.9665 16.1495 17.9061 16.0288 17.7854L13.0961 14.8784C12.6045 15.0685 12.0994 15.2058 11.5807 15.2902C11.062 15.3747 10.5351 15.4169 9.99982 15.4169ZM4.96148 6.74378C4.47315 7.121 4.03426 7.54753 3.64482 8.02336C3.25537 8.49933 2.92926 9.0194 2.66648 9.58357C3.36093 10.9863 4.3644 12.1009 5.6769 12.9273C6.9894 13.7537 8.43037 14.1669 9.99982 14.1669C10.3577 14.1669 10.71 14.1429 11.0567 14.0948C11.4034 14.0468 11.7477 13.9725 12.0896 13.8721L11.035 12.7919C10.8663 12.8657 10.6977 12.9156 10.5294 12.9417C10.3612 12.9679 10.1847 12.9811 9.99982 12.9811C9.05426 12.9811 8.25162 12.6512 7.5919 11.9915C6.93218 11.3318 6.60232 10.5291 6.60232 9.58357C6.60232 9.39871 6.61676 9.22218 6.64565 9.05399C6.67454 8.88565 6.72315 8.71711 6.79148 8.54836L4.96148 6.74378Z" fill="#737373"/>
</svg>
